<?xml version="1.0" encoding="UTF-8"?>
<svg id="Layer_1" data-name="Layer 1" xmlns="http://www.w3.org/2000/svg" viewBox="0 0 160 160">
  <defs>
    <style>
      .cls-1 {
        stroke-width: 2.12px;
      }

      .cls-1, .cls-2 {
        fill: none;
        stroke: #C7A86F;
        stroke-linejoin: round;
      }

      .cls-2 {
        stroke-linecap: round;
        stroke-width: 3px;
        stroke: #C7A86F;
      }

      /* Make the center compass gold */
      path { fill: #C7A86F; }
    </style>
  </defs>
  <path d="M126.63,82.44l-35.71-4.3,13.64-17.04c.14-.06.28-.15.4-.27.52-.51.52-1.35,0-1.86-6.02-6.06-13.84-9.66-22.27-10.3l-1.39-11.56c-.08-.66-.64-1.16-1.31-1.16s-1.23.5-1.31,1.16l-1.39,11.56c-17.24,1.31-31.05,15.12-32.37,32.37l-11.56,1.39c-.66.08-1.16.64-1.16,1.31s.5,1.23,1.16,1.31l11.56,1.39c1.31,17.24,15.12,31.05,32.37,32.37l1.39,11.56c.08.66.64,1.16,1.31,1.16s1.23-.5,1.31-1.16l1.39-11.56c8.28-.63,16-4.12,21.97-10.01.08-.05.15-.11.21-.17.48-.48.52-1.23.1-1.76l-14.05-17.53,35.7-4.3c.66-.08,1.16-.64,1.16-1.31s-.5-1.23-1.16-1.31ZM80.03,118.92l-.03.28-.03-.28-.32-2.64-2.83-23.55,1.54-1.23c.53.11,1.08.17,1.64.17s1.11-.06,1.64-.17l1.54,1.24-2.83,23.54-.32,2.64ZM44.56,83.75l.28-.03,2.64-.32,23.56-2.84,1.22,1.53c-.11.53-.18,1.09-.18,1.65s.06,1.11.17,1.64l-1.23,1.54-23.55-2.83-2.64-.32-.28-.03ZM79.97,48.58l.03-.28.03.28.32,2.64,2.83,23.55-1.54,1.23c-.53-.11-1.08-.17-1.65-.17s-1.12.06-1.66.18l-1.53-1.22,2.84-23.56.32-2.64ZM80.55,89.01c-.18.02-.37.03-.55.03s-.37-.01-.55-.03c-.03,0-.05,0-.08,0-.42-.05-.83-.15-1.22-.29,0,0-.02,0-.03-.01-.11-.04-.21-.09-.32-.13-.54-.25-1.03-.58-1.45-.98-.06-.06-.12-.12-.18-.18-.4-.42-.74-.91-.98-1.45-.05-.1-.09-.21-.13-.32,0-.01,0-.02-.01-.03-.14-.38-.24-.79-.29-1.21,0-.03,0-.05,0-.08-.02-.18-.03-.37-.03-.55s.01-.37.03-.55c0-.03,0-.06.01-.08.05-.42.15-.82.29-1.21,0,0,0-.02.01-.03.04-.11.09-.22.14-.33.25-.54.58-1.02.98-1.45.06-.06.12-.12.18-.18.42-.4.91-.73,1.45-.98.11-.05.22-.09.33-.14,0,0,.02,0,.03-.01.38-.14.79-.24,1.21-.29.03,0,.06,0,.08-.01.18-.02.37-.03.55-.03s.37.01.55.03c.03,0,.05,0,.08,0,.42.05.83.15,1.21.29.01,0,.02,0,.03.01.11.04.21.09.32.13.54.25,1.03.58,1.45.98.06.06.12.12.18.18.4.42.74.91.98,1.45.05.1.09.21.13.32,0,0,0,.02.01.03.14.39.24.79.29,1.21,0,.03,0,.05,0,.08.02.18.03.37.03.55s-.01.37-.03.55c0,.02,0,.05,0,.07-.05.42-.15.83-.29,1.22,0,0,0,.02-.01.03-.04.11-.09.21-.13.32-.25.54-.58,1.03-.98,1.45-.06.06-.12.12-.18.18-.42.4-.92.74-1.45.98-.1.05-.21.09-.32.13,0,0-.02,0-.03.01-.39.14-.79.24-1.22.29-.02,0-.05,0-.07,0ZM87.75,85.39c.11-.53.17-1.08.17-1.64s-.06-1.11-.17-1.65l1.23-1.54,26.46,3.18-26.46,3.18-1.24-1.54ZM101.95,59.74l-16.35,13.09-2.58-21.48c7.07.65,13.67,3.56,18.93,8.38ZM76.98,51.36l-2.59,21.49-16.37-13.07c5.1-4.68,11.68-7.75,18.95-8.42ZM56.03,61.77l13.07,16.37-21.49,2.59c.67-7.27,3.75-13.86,8.42-18.95ZM69.08,89.35l-13.08,16.33c-4.66-5.09-7.72-11.66-8.39-18.91l21.47,2.58ZM58.07,107.76l16.33-13.08,2.58,21.47c-7.25-.67-13.82-3.73-18.91-8.39ZM83.02,116.14l2.58-21.47,16.33,13.1c-5.26,4.82-11.85,7.72-18.92,8.37Z"/>
  <polygon class="cls-2" points="136.23 138.03 23.77 138.03 23.77 60.85 80 21.97 136.23 60.85 136.23 138.03"/>
  <line class="cls-1" x1="23.77" y1="60.85" x2="13.36" y2="68.28"/>
  <line class="cls-2" x1="23.77" y1="60.85" x2="13.36" y2="68.28"/>
  <line class="cls-2" x1="136.23" y1="60.85" x2="146.64" y2="68.28"/>
</svg>