<svg xmlns="http://www.w3.org/2000/svg" viewBox="0 0 600 200" role="img" aria-label="Serendipity Living">
  <defs>
    <style>
      .navy { fill: #1E2B3A; }
      .gold { fill: #D1B07A; }
      .white { fill: #FFFFFF; }
    </style>
  </defs>
  <rect class="navy" x="0" y="0" width="600" height="200" rx="0"/>
  <!-- Monogram SL -->
  <g>
    <path class="gold" d="M146.7,143.2c-19.3,0-34.4-4.7-45.3-14.2c-10.9-9.5-16.4-22-16.4-37.4c0-14.5,5.6-26.5,16.7-36.1
      c11.1-9.6,25.7-14.4,43.9-14.4c7.8,0,14.8,0.9,21,2.8V61c-6.9-2.6-13.8-4-20.6-4c-10.4,0-18.7,2.9-25.1,8.6c-6.4,5.7-9.5,13.1-9.5,22.3
      c0,9.5,3.2,17,9.5,22.6c6.3,5.6,14.7,8.4,25.1,8.4c7.3,0,14.8-1.5,22.4-4.6v18.1C162.3,141.8,154.8,143.2,146.7,143.2z"/>
    <path class="gold" d="M294.9,143.2h-54.5v-14.9c5.8-0.3,10.3-1.2,13.5-2.8c3.2-1.6,5.4-3.9,6.5-7c1.1-3.1,1.7-8.8,1.7-17.3V59.1h-21.3
      V44.9h21.3V22.8h20.6v22.1h31.3v14.2h-31.3v43.2c0,7.7-0.3,13.1-0.8,16.3c-0.5,3.2-1.6,6.1-3.3,8.7c-1.7,2.6-4.3,4.9-7.8,6.9
      c-3.5,2-8.2,3.6-14.2,4.7V143.2z"/>
  </g>
  <!-- Wordmark -->
  <g>
    <text x="300" y="173" text-anchor="middle" class="white" font-family="Inter, system-ui, Arial, sans-serif" font-size="24" letter-spacing="8">SERENDIPITY LIVING</text>
  </g>
</svg>

