<svg xmlns="http://www.w3.org/2000/svg" width="1200" height="800" viewBox="0 0 1200 800" preserveAspectRatio="xMidYMid slice" role="img" aria-label="Serendipity Living">
  <!-- Background matches header warm white -->
  <rect width="1200" height="800" fill="#F2ECE3"/>

  <!-- Inline wordmark scaled to 640x192 and centered; gold matches header (#C7A86F) -->
  <defs>
    <style>
      .cls-1 { letter-spacing: .42em; }
      .cls-2 { fill: #C7A86F; }
      .cls-3 { letter-spacing: .43em; }
      .cls-4 { letter-spacing: .41em; }
      .cls-5 { font-family: Montserrat-SemiBold, Montserrat; font-size: 8.98px; font-weight: 600; fill: #C7A86F; }
    </style>
  </defs>
  <g transform="translate(280,304) scale(4)">
    <g>
      <path class="cls-2" d="M7.22,22.06c0-2.31,1.75-3.76,3.43-3.76,1.15,0,1.98.62,1.98,1.04,0,.09-.06.15-.15.15-.24,0-.56-.21-1.21-.21-1.33,0-2.25,1.13-2.25,2.61,0,2.13,1.95,3.4,4.26,3.4s4.32-1.36,4.32-3.76c0-5.51-9.77-6.13-9.77-11.78,0-2.96,2.58-4.41,5.21-4.41s3.97,1.42,4.53,1.42c.15,0,.27-.09.33-.24h.18v3.08h-.18c-.77-1.01-2.46-2.49-4.77-2.49-2.1,0-3.4,1.18-3.4,2.63,0,4.17,9.77,5.3,9.77,11.58,0,2.93-2.13,5.74-6.22,5.74-3.67,0-6.07-2.28-6.07-5Z"/>
      <path class="cls-2" d="M31.41,14.92c-.27-.36-.71-.62-1.18-.62h-6.28v10.48h7.99c.5,0,.95-.21,1.15-.62h.15l-.38,2.4h-11.49v-.12c.38-.27.68-.71.68-1.18V7.14c0-.5-.3-.92-.68-1.18v-.12h10.66l.38,2.4h-.18c-.21-.41-.65-.62-1.15-.62h-7.13v4.94h6.28c.47,0,.92-.27,1.18-.59h.12v2.96h-.12Z"/>
      <path class="cls-2" d="M38.09,26.44v.12h-3.26v-.12c.38-.27.68-.71.68-1.18V7.14c0-.5-.3-.92-.68-1.18v-.12h6.39c4.14,0,6.99,2.4,6.99,5.86,0,2.99-2.04,5.09-5.15,5.68,2.9,2.13,4.56,8.05,8.76,8.05,1.72,0,2.66-1.01,3.05-1.01.09,0,.21.09.21.3,0,.74-1.54,2.28-3.85,2.28-5.98,0-7.28-9.39-11.34-9.39h-2.49v7.64c0,.47.3.92.68,1.18ZM41.23,15.84c3.14,0,5.09-1.6,5.09-4.12s-1.95-4.12-4.88-4.12h-4.03v8.23h3.82Z"/>
      <path class="cls-2" d="M58.99,13.44c-.27-.33-.71-.56-1.18-.56h-4.29v6.78h5.6c.53,0,.98-.21,1.15-.62h.15l-.36,2.28h-9.03v-.12c.38-.27.68-.71.68-1.18V7.14c0-.5-.3-.92-.68-1.18v-.12h8.29l.36,2.28h-.18c-.18-.41-.62-.62-1.15-.62h-4.83v3.76h4.29c.47,0,.92-.24,1.18-.56h.12v2.75h-.12Z"/>
      <path class="cls-2" d="M62.33,26.44c.38-.27.68-.71.68-1.18V7.14c0-.5-.3-.92-.68-1.18v-.12h3.26v.12c-.38.27-.68.68-.68,1.18v.06c0,4.91,8.05,9.68,9.41,13.32V7.14c0-.5-.3-.92-.68-1.18v-.12h3.26v.12c-.38.27-.68.68-.68,1.18v18.12c0,.47.3.92.68,1.18v.12h-3.26v-.12c.38-.27.68-.71.68-1.18v-.06c0-4.86-8.08-9.89-9.41-13.41v13.47c0,.47.3.92.68,1.18v.12h-3.26v-.12Z"/>
      <path class="cls-2" d="M79.32,26.44c.38-.27.68-.71.68-1.18V7.14c0-.5-.3-.92-.68-1.18v-.12h6.01c7.08,0,11.49,3.4,11.49,10.27s-4.38,10.45-10.48,10.45h-7.02v-.12ZM86.07,24.78c5.77,0,8.82-3.08,8.82-8.62s-3.23-8.56-9.5-8.56h-3.49v17.17h4.17Z"/>
      <path class="cls-2" d="M98.94,26.44c.38-.27.68-.71.68-1.18V7.14c0-.5-.3-.92-.68-1.18v-.12h3.26v.12c-.38.27-.68.68-.68,1.18v18.12c0,.47.3.92.68,1.18v.12h-3.26v-.12Z"/>
      <path class="cls-2" d="M108.21,26.44v.12h-3.26v-.12c.38-.27.68-.71.68-1.18V7.14c0-.5-.3-.92-.68-1.18v-.12h6.51c4.44,0,7.19,2.34,7.19,6.19s-2.93,6.19-7.16,6.19h-3.97v7.05c0,.47.3.92.68,1.18ZM111.5,16.43c3.23,0,5.24-1.39,5.24-4.38s-1.87-4.44-5.3-4.44h-3.91v8.82h3.97Z"/>
      <path class="cls-2" d="M120.64,26.44c.38-.27.68-.71.68-1.18v-12.94c0-.5-.3-.95-.68-1.18v-.12h3.26v.12c-.38.24-.68.68-.68,1.18v12.94c0,.47.3.92.68,1.18v.12h-3.26v-.12Z"/>
      <path class="cls-2" d="M127.93,26.44c.38-.27.68-.71.68-1.18V7.61h-4.62c-.5,0-.95.21-1.15.62h-.18l.38-2.4h13.03l.38,2.4h-.15c-.18-.41-.62-.62-1.15-.62h-4.65v17.64c0,.47.3.92.68,1.18v.12h-3.26v-.12Z"/>
      <path class="cls-2" d="M143.37,26.44c.38-.27.68-.71.68-1.18v-7.76l-5.83-10.48c-.24-.44-.62-.95-1.04-1.07v-.12h3.29v.12c-.44.27-.44.62-.18,1.07l4.71,8.5,4.71-8.5c.27-.47.27-.8-.21-1.07v-.12h3.29v.12c-.41.12-.77.62-1.04,1.07l-5.8,10.48v7.76c0,.47.27.92.65,1.18v.12h-3.23v-.12Z"/>
    </g>
    <text class="cls-5" transform="translate(54.68 43.89)"><tspan class="cls-3" x="0" y="0">L</tspan><tspan class="cls-4" x="9.19" y="0">IV</tspan><tspan class="cls-1" x="25.96" y="0">ING</tspan></text>
  </g>
</svg>
